<?xml version="1.0" encoding="utf-8"?>
<svg version="1.1" xmlns="http://www.w3.org/2000/svg" xmlns:xlink="http://www.w3.org/1999/xlink" x="0px" y="0px" viewBox="0 0 32 32" style="enable-background:new 0 0 32 32;" xml:space="preserve">
	<rect fill="#73FFD2" width="32" height="32"/>
	<path fill="#161616" d="M16.1,2.9l5.8,10.2c1,0.5,2.1,1,3,1.7c0.9,0.6,1.7,1.3,2.4,2c0.2,0.2,0.4,0.5,0.6,0.7l0,0
		l0.2,0.3l-0.7,0.6l-0.1-0.1l-0.3-0.3c-0.1-0.1-0.3-0.3-0.5-0.5c-0.6-0.6-1.4-1.3-2.3-1.9c-0.6-0.4-1.1-0.7-1.7-1.1l3.2,5.7l0,0l0,0
		l4,7.1H2.3l7.2-12.8c-0.5,0.3-1,0.6-1.5,0.9c-0.9,0.6-1.6,1.2-2.3,1.9c-0.2,0.2-0.4,0.4-0.6,0.6l0,0L5,18.3l-0.7-0.6l0.1-0.1
		l0.3-0.3c0.1-0.2,0.3-0.3,0.5-0.5c0.7-0.7,1.5-1.4,2.4-2c0.9-0.6,1.8-1.2,2.8-1.6L16.1,2.9z M5.2,24.1l-1.3,2.3l4.8,0l-1.4-1
		l-1.3-0.9L5.2,24.1z M24.8,20.3l-1.1,0.9c-0.2,0.1-0.4,0.3-0.6,0.4l0,0l-1.1,0.9l-0.8,0.7l-0.6,0.4c-1.5,1.2-3.2,1.7-4.6,1.7l0.1,0
		l0,0l0,0l-0.2,0c-1.3-0.1-2.7-0.6-4.1-1.5l-0.3-0.2l-4.2-3.2c-0.1,0.1-0.1,0.1-0.1,0.2l0,0l-0.1,0.1l-0.1,0.1l-1.5,2.6l2.1,1.4
		L9,25.6l1.2,0.9l11.8,0c0.2-0.2,0.5-0.3,0.7-0.5l0.3-0.2l2.1-1.4l1.5-1l-1.5-2.7c0,0,0,0,0-0.1L25,20.5L24.8,20.3z M27.1,24.1
		L24.3,26l-0.7,0.5l4.8,0L27.1,24.1z M16.1,25.3L16.1,25.3L16.1,25.3L16.1,25.3L16.1,25.3z M19.3,16.2L19.3,16.2
		c0.7,0.8,1.2,1.9,1.2,3.1c0,2.5-2,4.5-4.4,4.5c-2.4,0-4.4-2-4.4-4.5c0-1.2,0.4-2.2,1.2-3c-1.2,0.4-2.3,1.1-3.4,2
		c-0.7,0.6-1.3,1.2-1.8,1.8L8,19.7l4.2,3.2c1.3,1,2.6,1.5,3.8,1.5l0.2,0c1.2,0,2.7-0.5,4-1.5l0,0l0.6-0.4l0.6-0.5l1.3-1l1.1-0.9
		l0.5-0.4c-0.5-0.5-1-1-1.5-1.4C21.6,17.3,20.5,16.6,19.3,16.2z M16.1,15.7c-1.9,0-3.5,1.6-3.5,3.6c0,2,1.6,3.6,3.5,3.6
		c1.9,0,3.5-1.6,3.5-3.6C19.6,17.3,18,15.7,16.1,15.7z M16.1,17.3c1,0,1.9,0.9,1.9,1.9s-0.8,1.9-1.9,1.9c-1,0-1.9-0.9-1.9-1.9
		S15.1,17.3,16.1,17.3z M16.1,18.2c-0.5,0-1,0.5-1,1c0,0.6,0.4,1,1,1c0.5,0,1-0.5,1-1C17.1,18.7,16.6,18.2,16.1,18.2z M16.2,12.8
		c-1.9,0-3.6,0.4-5.3,1.1l-2,3.6L9,17.5c2-1.7,4.3-2.7,6.8-2.8l0.4,0c2.6,0,5,1,7.2,2.8c0,0,0,0,0.1,0l-2.1-3.7
		C19.7,13.2,18,12.8,16.2,12.8z M16.1,4.7l-4.5,8c1.4-0.5,3-0.8,4.6-0.8c1.5,0,3,0.2,4.4,0.7L16.1,4.7z"/>
</svg>
